# xmcd CD database file
#
# Track frame offsets:
#	150
#	14462
#	27065
#	41440
#	54758
#	68886
#	82343
#	97590
#	112137
#	124568
#	139095
#	151605
#	163581
#	177924
#	190685
#	204941
#	218619
#	231926
#	243915
#	258489
#	272730
#	283328
#	294715
#
# Disc length: 4116 seconds
#
# Revision: 1
# Processed by: cddbd v1.5.2PL0 Copyright (c) Steve Scherf et al.
# Submitted via: CDex 1.51
#
DISCID=3e101217
DTITLE=Woody Herman - [CD 06-10] - Hollywood Blues
DYEAR=1900
DGENRE=Jazz
TTITLE0=Spain  [1950]
TTITLE1=Pennies From Heaven  [1950]
TTITLE2=I Want A Little Girl  [1950]
TTITLE3=Music To Dance  [1950]
TTITLE4=The Nearness Of You  [1950]
TTITLE5=Sonny Speaks  [1950]
TTITLE6=Starlight Souvenirs  [1950]
TTITLE7=When It Rains It Pours  [1950]
TTITLE8=Johannesburg  [1950]
TTITLE9=Here Comes The Blues  [1951]
TTITLE10=I Left My Hat In Haiti  [1951]
TTITLE11=Lonesome Gal  [1951]
TTITLE12=Searching  [1951]
TTITLE13=Jet  [1951]
TTITLE14=Ninety Nine Guys  [1951]
TTITLE15=I Ca See You  [1951]
TTITLE16=By George  [1951]
TTITLE17=Leo The Lion  [1951]
TTITLE18=It Isn't Easy  [1951]
TTITLE19=Cuban Holiday  [1951]
TTITLE20=The Glory Of Love  [1951]
TTITLE21=Hollywood Blues  [1951]
TTITLE22=Pass The Basket  [1951]
EXTD=
EXTT0=
EXTT1=
EXTT2=
EXTT3=
EXTT4=
EXTT5=
EXTT6=
EXTT7=
EXTT8=
EXTT9=
EXTT10=
EXTT11=
EXTT12=
EXTT13=
EXTT14=
EXTT15=
EXTT16=
EXTT17=
EXTT18=
EXTT19=
EXTT20=
EXTT21=
EXTT22=
PLAYORDER=
